<?xml version="1.0" encoding="UTF-8"?>
<svg width="13px" height="16px" viewBox="0 0 13 16" version="1.1" xmlns="http://www.w3.org/2000/svg" xmlns:xlink="http://www.w3.org/1999/xlink">
    <title>下一曲</title>
    <g id="页面-1" stroke="none" stroke-width="1" fill="none" fill-rule="evenodd">
        <g id="icon-备份" transform="translate(-144.000000, -111.000000)" fill="#D8D8D8">
            <g id="下一曲" transform="translate(144.000000, 111.000000)">
                <path d="M1,-1.4321877e-14 C1.19500483,-1.42108547e-14 1.38575479,0.0570153087 1.54877322,0.164028737 L9.999,5.711 L10,0.147336771 L13,0.147336771 L13,15.1473368 L10,15.1473368 L9.999,9.583 L1.54877322,15.1306448 C1.08707904,15.4337239 0.467107817,15.3051409 0.164028737,14.8434468 C0.0570153087,14.6804283 -1.22568622e-13,14.4896784 -1.26121336e-13,14.2946735 L-1.22568622e-13,1 C-1.22568622e-13,0.44771525 0.44771525,-1.4321877e-14 1,-1.4321877e-14 Z" transform="translate(6.500000, 7.647393) scale(-1, 1) translate(-6.500000, -7.647393) "></path>
            </g>
        </g>
    </g>
</svg>