<?xml version="1.0" encoding="UTF-8"?>
<svg width="24px" height="20px" viewBox="0 0 24 20" version="1.1" xmlns="http://www.w3.org/2000/svg" xmlns:xlink="http://www.w3.org/1999/xlink">
    <title>主题</title>
    <g id="页面-1" stroke="none" stroke-width="1" fill="none" fill-rule="evenodd">
        <g id="icon-备份" transform="translate(-321.000000, -343.000000)" fill-rule="nonzero">
            <g id="主题" transform="translate(322.000000, 344.000000)">
                <path d="M21.6867903,5.45193591 C20.4841986,4.24485442 19.2750296,3.04410659 18.0593352,1.8497441 C17.4627978,1.26405563 15.8737237,1.23165584 15.2357248,1.76832924 C13.4351126,3.28530392 10.2848875,3.2861347 8.46227531,1.77082153 C7.81158415,1.22916355 6.23604849,1.25990179 5.63781878,1.84642104 C4.43547,3.02868175 3.23899637,4.21668809 2.04844053,5.41039773 C1.57121061,5.88725616 1.57374907,6.16639279 2.05520975,6.65986649 C2.6559779,7.27546246 3.26943837,7.88108927 3.87866806,8.49003912 C4.50905156,9.12058884 4.56574376,9.12972724 5.43135761,8.71849918 L5.43135761,9.3789564 C5.43135761,11.8263865 5.42881915,14.2738167 5.4330499,16.7220776 C5.4347422,17.677456 5.76389548,17.9981308 6.73189377,17.9981308 C10.1401954,18.0006231 13.5493432,18.0006231 16.9576449,17.9981308 C17.9197201,17.9981308 18.2598733,17.6683175 18.2607195,16.7220776 C18.2657964,14.2920935 18.2624118,11.8621094 18.2624118,9.43378681 L18.2624118,8.71932993 C19.0205643,9.08154295 19.1931793,9.09566593 19.5350249,8.76252965 C20.268639,8.0455805 20.9954839,7.32032371 21.7087903,6.58343621 C22.1064819,6.17137736 22.0946358,5.8606717 21.6867903,5.45193591" id="路径备份" fill="#EFF0FF"></path>
                <path d="M12.6645388,11.8600157 L9.43237786,11.8600157 C9.2184369,11.860254 9.01316179,11.7770409 8.86171077,11.6286818 C8.71025976,11.4803227 8.62503895,11.2789705 8.62479597,11.0689203 C8.62580739,10.6318652 8.98722616,10.2782277 9.43237786,10.278725 L12.6645388,10.278725 C13.1096905,10.2782277 13.4711093,10.6318652 13.4721207,11.0689203 C13.4718777,11.2789705 13.3866569,11.4803227 13.2352059,11.6286818 C13.0837549,11.7770409 12.8784798,11.860254 12.6645388,11.8600157" id="路径" fill="#5955FB"></path>
                <path d="M12.6645388,15.022595 L9.43237786,15.022595 C9.2184369,15.0228333 9.01316179,14.9396202 8.86171077,14.7912611 C8.71025976,14.642902 8.62503895,14.4415498 8.62479597,14.2314996 C8.6258074,13.7944446 8.98722617,13.440807 9.43237786,13.4413043 L12.6645388,13.4413043 C13.1096905,13.440807 13.4711093,13.7944446 13.4721207,14.2314996 C13.4718777,14.4415498 13.3866569,14.642902 13.2352059,14.7912611 C13.0837549,14.9396202 12.8784798,15.0228333 12.6645388,15.022595" id="路径" fill="#5955FB"></path>
                <path d="M21.6606895,4.40626391 C20.3578818,3.09859229 19.0479487,1.79778214 17.7309465,0.503889444 C17.0846976,-0.130606406 15.3632007,-0.165706176 14.6720352,0.415690007 C12.721372,2.05907925 9.30862808,2.05997925 7.33413158,0.41838999 C6.62921616,-0.168406159 4.92238586,-0.13510639 4.27430368,0.500289461 C2.97175916,1.7810719 1.6755794,3.06807876 0.385810578,4.36126421 C-0.131188505,4.87786084 -0.12843851,5.18025886 0.393143891,5.71485536 C1.04397606,6.381751 1.70855823,7.03784671 2.36855706,7.69754238 C3.05147253,8.38063791 3.11288907,8.39053784 4.05063741,7.94504078 L4.05063741,8.6605361 C4.05063741,11.3119188 4.04788741,13.9633014 4.05247073,16.6155841 C4.05430405,17.6505773 4.41088677,17.997975 5.45955158,17.997975 C9.15187836,18.000675 12.8451218,18.000675 16.5374486,17.997975 C17.5796967,17.997975 17.9481961,17.6406773 17.9491128,16.6155841 C17.9546128,13.9831013 17.9509461,11.3506185 17.9509461,8.71993571 L17.9509461,7.94594076 C18.772278,8.3383382 18.9592776,8.35363809 19.3296103,7.99274046 C20.1243589,7.21604554 20.9117742,6.43035068 21.6845228,5.63205589 C22.1153554,5.1856588 22.1025221,4.84906101 21.6606895,4.40626391" id="路径" stroke="#333333" stroke-width="1.5"></path>
            </g>
        </g>
    </g>
</svg>