<?xml version="1.0" encoding="UTF-8"?>
<svg width="37px" height="37px" viewBox="0 0 37 37" version="1.1" xmlns="http://www.w3.org/2000/svg" xmlns:xlink="http://www.w3.org/1999/xlink">
    <title>分享 (2)</title>
    <defs>
        <filter x="-79.4%" y="-79.4%" width="258.8%" height="258.8%" filterUnits="objectBoundingBox" id="filter-1">
            <feOffset dx="0" dy="2" in="SourceAlpha" result="shadowOffsetOuter1"></feOffset>
            <feGaussianBlur stdDeviation="2.5" in="shadowOffsetOuter1" result="shadowBlurOuter1"></feGaussianBlur>
            <feColorMatrix values="0 0 0 0 0   0 0 0 0 0   0 0 0 0 0  0 0 0 0.154884178 0" type="matrix" in="shadowBlurOuter1" result="shadowMatrixOuter1"></feColorMatrix>
            <feMerge>
                <feMergeNode in="shadowMatrixOuter1"></feMergeNode>
                <feMergeNode in="SourceGraphic"></feMergeNode>
            </feMerge>
        </filter>
    </defs>
    <g id="页面-1" stroke="none" stroke-width="1" fill="none" fill-rule="evenodd">
        <g id="icon-备份" transform="translate(-334.000000, -151.000000)" fill="#E8E9EA" fill-rule="nonzero">
            <g id="分享-(2)" filter="url(#filter-1)" transform="translate(344.000000, 161.000000)">
                <g id="分享">
                    <path d="M8.38874101,0.686381091 C8.76723777,0.686381091 9.07407002,1.00060281 9.07407002,1.38821494 C9.07407002,1.77582707 8.76723777,2.09004879 8.38874101,2.09004879 L3.8909424,2.09004879 C2.50064704,2.09300039 1.37471226,3.24724913 1.37327379,4.67102939 L1.37327379,13.0153517 C1.37327379,14.4391101 2.50328194,15.5963323 3.89225026,15.5963323 L12.5752642,15.5963323 C13.9665812,15.5948558 15.0941068,14.4401759 15.0955486,13.0153517 L15.0955486,9.71646473 C15.0955486,9.3288526 15.4023809,9.01463088 15.7808776,9.01463088 C16.1593744,9.01463088 16.4662066,9.3288526 16.4662066,9.71646473 L16.4662066,13.0153517 C16.4633248,15.2147886 14.7229776,16.9970487 12.5752642,17 L3.8909424,17 C1.74322909,16.9970487 0.00288186926,15.2147886 0,13.0153517 L0,4.67102939 C0.00216279658,2.47128699 1.74293075,0.688595975 3.8909424,0.686381091 L8.38874101,0.686381091 Z M12.6145006,0.0488373637 C12.7836174,-0.0193853959 12.9722719,-0.0160128645 13.1389604,0.0582130067 L16.5865316,1.58912157 C16.9039403,1.72965953 17.0693856,2.09034386 16.9723561,2.4302507 L15.9378232,6.05192766 C15.8691359,6.29261997 15.6802782,6.47750211 15.4423908,6.53693075 C15.2045035,6.5963594 14.9537273,6.52130592 14.7845273,6.34004224 C14.6153272,6.15877857 14.5534088,5.89884296 14.6220961,5.65815065 L15.2381075,3.50175275 C8.62808302,5.97960127 9.06622275,10.0727392 9.07145428,10.1155992 C9.1044059,10.3646612 9.00479035,10.6127548 8.81028805,10.7660366 C8.61578574,10.9193184 8.35609309,10.9543855 8.12944103,10.8579735 C7.90278897,10.7615615 7.7437825,10.5483903 7.71256716,10.299094 C7.6837938,10.079436 7.14363944,5.10900585 14.6103252,2.24005908 L12.5935746,1.34535485 C12.3385023,1.2327706 12.1750094,0.973654838 12.179595,0.689249291 C12.1841807,0.404843744 12.3559379,0.151396905 12.6145006,0.0474979835 L12.6145006,0.0488373637 Z" id="形状"></path>
                </g>
            </g>
        </g>
    </g>
</svg>