<?xml version="1.0" encoding="UTF-8"?>
<svg width="21px" height="20px" viewBox="0 0 21 20" version="1.1" xmlns="http://www.w3.org/2000/svg" xmlns:xlink="http://www.w3.org/1999/xlink">
    <title>单曲循环</title>
    <g id="页面-1" stroke="none" stroke-width="1" fill="none" fill-rule="evenodd">
        <g id="icon-备份" transform="translate(-52.000000, -94.000000)" fill="#FFFFFF" fill-rule="nonzero">
            <g id="单曲循环备份" transform="translate(52.000000, 94.000000)">
                <path d="M17.1985523,15.9593411 L14.0690699,13.9353434 C13.883593,13.8152498 13.6947042,13.7541516 13.5071708,13.7541516 C13.0869091,13.7541516 12.6613193,14.0976099 12.6613193,14.7534051 L12.6613193,15.6564903 L7.70431541,15.6564903 C4.74551767,15.6564903 2.33836019,13.1429126 2.33836019,10.0537267 C2.33836019,8.9372768 2.65610367,7.85757927 3.25730882,6.93045202 C3.61942936,6.3719467 3.4798017,5.61311403 2.94510371,5.23500612 C2.41045246,4.85766923 1.68329031,5.00341706 1.3215203,5.56124481 C0.457090715,6.89369964 0,8.4474865 0,10.0537267 C0,14.4896431 3.45629284,18.0978249 7.70431541,18.0978249 L12.6613193,18.0978249 L12.6613193,19.0072652 C12.6613193,19.689252 13.0941534,20 13.4963512,20 C13.6880909,20 13.8808121,19.9352102 14.0697009,19.8078502 L17.2142326,17.6878244 C17.5282371,17.4760718 17.7066567,17.158735 17.7035659,16.8181271 C17.7000901,16.4775426 17.5160854,16.1645516 17.1985523,15.9593411 L17.1985523,15.9593411 Z M13.295965,1.9019882 L8.33907794,1.9019882 L8.33907794,0.992664711 C8.33907794,0.310748027 7.90615041,0 7.50392927,0 C7.31223627,0 7.11951504,0.0646963373 6.93057954,0.192103028 L3.78609454,2.31219896 C3.47204331,2.52395155 3.29360033,2.84124164 3.29671396,3.18189624 C3.30026039,3.52250412 3.48428848,3.83540168 3.80184501,4.04063556 L6.93132734,6.06460989 C7.11671081,6.18470349 7.30564631,6.24580169 7.49313296,6.24580169 C7.91351153,6.24580169 8.33907794,5.90229661 8.33907794,5.24654819 L8.33907794,4.3433462 L13.295965,4.3433462 C16.2548095,4.3433462 18.6616865,6.8569239 18.6616865,9.94610975 C18.6616865,11.0632139 18.343873,12.142888 17.7430183,13.069291 C17.3808978,13.6278898 17.5211798,14.3867224 18.0555272,14.7648303 C18.2564509,14.9064894 18.4848093,14.9745736 18.7099428,14.9745736 C19.085103,14.9745736 19.4530657,14.7865827 19.6794144,14.4384748 C20.5433066,13.1067443 21,11.5530042 21,9.94610975 C21,5.51021672 17.5440109,1.9019882 13.295965,1.9019882 L13.295965,1.9019882 Z" id="形状" opacity="0.517668968"></path>
                <path d="M12.0190555,6.12706323 L12.0190555,13.8729835 L10.7496472,13.8729835 L10.7496472,7.65641081 C10.2828819,8.07921505 9.69660932,8.39386495 8.98096791,8.60036051 L8.98096791,7.34178428 C9.32820262,7.25479819 9.69660932,7.10276531 10.0877303,6.88645664 C10.4780802,6.64743767 10.8033718,6.39785794 11.0643762,6.12706323 L12.0190555,6.12706323 L12.0190555,6.12706323 Z" id="路径" opacity="0.483648256"></path>
            </g>
        </g>
    </g>
</svg>