<?xml version="1.0" encoding="UTF-8"?>
<svg width="22px" height="22px" viewBox="0 0 22 22" version="1.1" xmlns="http://www.w3.org/2000/svg" xmlns:xlink="http://www.w3.org/1999/xlink">
    <title>启动音</title>
    <g id="页面-1" stroke="none" stroke-width="1" fill="none" fill-rule="evenodd">
        <g id="icon-备份" transform="translate(-67.000000, -263.000000)">
            <g id="启动音" transform="translate(67.000000, 263.000000)">
                <path d="M11.0929985,21.0961914 C12.0884831,21.0961914 13.0496748,18.1875181 13.9560991,17.9640092 C18.031658,16.9590454 21,13.8641027 21,10.2019199 C21,5.72524967 16.5644843,2.09619141 11.0929985,2.09619141 C5.62151265,2.09619141 1.18599699,5.72524967 1.18599699,10.2019199 C1.18599699,14.0780349 4.51126926,17.3187016 8.95510262,18.1184292 C9.6436187,18.2423369 10.3589865,21.0961914 11.0929985,21.0961914 Z" id="椭圆形备份-16" fill="#FEEAEC"></path>
                <path d="M11,0.75 C13.8499493,0.75 16.4341825,1.687273 18.3032463,3.21650694 C20.1122879,4.69663189 21.25,6.7358631 21.25,9 C21.25,10.8214312 20.5130327,12.4993459 19.2820889,13.8557954 C17.9824209,15.2879762 16.13562,16.3635081 13.9994157,16.89026 C13.4171254,17.0338429 12.7333637,17.8751274 12.0964388,18.8851987 C11.7729837,19.3981521 11.4943434,20.1801864 11.1202815,20.3232417 C10.919638,20.0698327 10.7442694,19.7242235 10.5668562,19.3662771 C9.79319661,17.7867167 9.20279435,17.1316156 8.75907753,17.0517628 C6.43171719,16.632923 4.39574183,15.5749881 2.95344916,14.1053307 C1.58164358,12.7074978 0.75,10.9350171 0.75,9 C0.75,6.7358631 1.88771215,4.69663189 3.69675375,3.21650694 C5.56581746,1.687273 8.15005073,0.75 11,0.75 Z" id="椭圆形" stroke="#272727" stroke-width="1.5"></path>
                <g id="音符" transform="translate(9.000000, 5.000000)" fill="#FD3351" fill-rule="nonzero">
                    <path d="M3.00101224,0.499942958 L3.00101224,4.6878742 C2.69588558,4.52996828 2.35180273,4.44618975 2.00143228,4.44449288 C1.29411136,4.42374877 0.630618564,4.75788956 0.270265099,5.31632385 C-0.0900883662,5.87475813 -0.0900883662,6.56882204 0.270265099,7.12725633 C0.630618564,7.68569061 1.29411136,8.0198314 2.00143228,7.9990873 C2.52380608,8.00661726 3.02801761,7.82343895 3.40299675,7.48990374 C3.77797588,7.15636853 3.9929603,6.6998388 4.00059221,6.2208811 L4.00059221,1.7782062 L5.03115345,1.7782062 C5.56651315,1.77732878 6,1.37916454 6,0.888307732 C6,0.652713872 5.89792539,0.426769323 5.71623142,0.260179308 C5.53453744,0.0935892928 5.28810753,0 5.03115345,0 L3.54628274,0 C3.24513816,0 3.00101224,0.223832087 3.00101224,0.499942958 Z" id="路径"></path>
                </g>
            </g>
        </g>
    </g>
</svg>