<?xml version="1.0" encoding="UTF-8"?>
<svg width="33px" height="32px" viewBox="0 0 33 32" version="1.1" xmlns="http://www.w3.org/2000/svg" xmlns:xlink="http://www.w3.org/1999/xlink">
    <title>喜欢</title>
    <defs>
        <path d="M4.4359804,12.8663388 L0.427883989,8.98103373 C-0.13247149,8.4378452 -0.143937372,7.54576016 0.402274224,6.98850602 C0.619778546,6.76660451 0.904774582,6.62219547 1.21314163,6.57763511 L6.75219464,5.77721824 L6.75219464,5.77721824 L9.22933445,0.785764224 C9.57565318,0.0879295622 10.4252551,-0.198584225 11.1269735,0.14581777 C11.4064015,0.282960451 11.6325756,0.507882802 11.7704816,0.785764224 L14.2476214,5.77721824 L14.2476214,5.77721824 L19.7866744,6.57763511 C20.5610666,6.6895381 21.0976154,7.40454788 20.9850896,8.17465415 C20.9402812,8.48131451 20.7950685,8.76473321 20.571932,8.98103373 L16.5638356,12.8663388 L16.5638356,12.8663388 L17.4517522,18.0146376 L17.5100188,18.3524777 C17.6423008,19.1194722 17.1243042,19.8478863 16.3530411,19.9794362 C16.04592,20.03182 15.7299995,19.9820601 15.4541876,19.8378597 L10.499908,17.2476563 L10.499908,17.2476563 L5.54562838,19.8378597 C4.85299091,20.1999854 3.99630265,19.9351603 3.63216159,19.2463563 C3.48715871,18.972071 3.43712181,18.6578989 3.48979719,18.3524777 L3.51567916,18.2024094 L3.51567916,18.2024094" id="path-1"></path>
        <filter x="-46.4%" y="-33.8%" width="192.9%" height="197.5%" filterUnits="objectBoundingBox" id="filter-2">
            <feMorphology radius="0.75" operator="dilate" in="SourceAlpha" result="shadowSpreadOuter1"></feMorphology>
            <feOffset dx="0" dy="3" in="shadowSpreadOuter1" result="shadowOffsetOuter1"></feOffset>
            <feMorphology radius="1" operator="erode" in="SourceAlpha" result="shadowInner"></feMorphology>
            <feOffset dx="0" dy="3" in="shadowInner" result="shadowInner"></feOffset>
            <feComposite in="shadowOffsetOuter1" in2="shadowInner" operator="out" result="shadowOffsetOuter1"></feComposite>
            <feGaussianBlur stdDeviation="2.5" in="shadowOffsetOuter1" result="shadowBlurOuter1"></feGaussianBlur>
            <feColorMatrix values="0 0 0 0 0   0 0 0 0 0   0 0 0 0 0  0 0 0 0.154884178 0" type="matrix" in="shadowBlurOuter1"></feColorMatrix>
        </filter>
    </defs>
    <g id="页面-1" stroke="none" stroke-width="1" fill="none" fill-rule="evenodd" stroke-linecap="round">
        <g id="icon-备份" transform="translate(-167.000000, -19.000000)">
            <g id="喜欢" transform="translate(173.000000, 22.000000)">
                <use fill="black" fill-opacity="1" filter="url(#filter-2)" xlink:href="#path-1"></use>
                <use stroke="#CCCDD0" stroke-width="1.5" xlink:href="#path-1"></use>
            </g>
        </g>
    </g>
</svg>