<?xml version="1.0" encoding="UTF-8"?>
<svg width="18px" height="20px" viewBox="0 0 18 20" version="1.1" xmlns="http://www.w3.org/2000/svg" xmlns:xlink="http://www.w3.org/1999/xlink">
    <title>帮助中心</title>
    <g id="页面-1" stroke="none" stroke-width="1" fill="none" fill-rule="evenodd">
        <g id="icon-备份" transform="translate(-69.000000, -343.000000)">
            <g id="帮助中心" transform="translate(69.000000, 343.000000)">
                <path d="M6.79140033,2.60579427 L16.5491395,2.60579427 C16.997305,2.60579427 17.3652111,2.96024981 17.3818952,3.40810461 L17.7745984,13.9495057 C17.8945331,17.1689335 15.3818975,19.8760217 12.1624696,19.9959564 C12.090114,19.9986519 12.0177145,20 11.9453087,20 L3.458067,20 C2.99782971,20 2.62473366,19.626904 2.62473366,19.1666667 L2.62473366,6.77246094 C2.62473366,4.47127448 4.49021387,2.60579427 6.79140033,2.60579427 Z" id="矩形备份-19" fill="#E8FAEA"></path>
                <path d="M15.5,0.75 C15.9832492,0.75 16.4207492,0.945875422 16.7374369,1.26256313 C17.0541246,1.57925084 17.25,2.01675084 17.25,2.5 L17.25,2.5 L17.25,14.1666667 C17.25,15.5703904 16.6810285,16.8412237 15.7611261,17.7611261 C14.8412237,18.6810285 13.5703904,19.25 12.1666667,19.25 L12.1666667,19.25 L2.5,19.25 C2.01675084,19.25 1.57925084,19.0541246 1.26256313,18.7374369 C0.945875422,18.4207492 0.75,17.9832492 0.75,17.5 L0.75,17.5 L0.75,5.83333333 C0.75,4.42960959 1.31897146,3.15877626 2.23887386,2.23887386 C3.15877626,1.31897146 4.42960959,0.75 5.83333333,0.75 L5.83333333,0.75 Z" id="矩形" stroke="#333333" stroke-width="1.5"></path>
                <rect id="矩形" fill="#0BCC21" x="4.09090909" y="6.66666667" width="4.09090909" height="1.25" rx="0.625"></rect>
                <rect id="矩形备份-20" fill="#0BCC21" x="4.09090909" y="10" width="5.72727273" height="1.25" rx="0.625"></rect>
            </g>
        </g>
    </g>
</svg>