<?xml version="1.0" encoding="UTF-8"?>
<svg width="19px" height="22px" viewBox="0 0 19 22" version="1.1" xmlns="http://www.w3.org/2000/svg" xmlns:xlink="http://www.w3.org/1999/xlink">
    <title>我的追剧</title>
    <g id="页面-1" stroke="none" stroke-width="1" fill="none" fill-rule="evenodd">
        <g id="icon-备份" transform="translate(-69.000000, -427.000000)">
            <g id="我的追剧" transform="translate(69.000000, 427.000000)">
                <path d="M4.54761905,2.87532552 L17.1666667,2.87532552 C18.1791887,2.87532552 19,3.69613681 19,4.70865885 L19,18.0941475 C19,19.1066696 18.1791887,19.9274808 17.1666667,19.9274808 C16.8778171,19.9274808 16.5930547,19.8592295 16.3355886,19.7282896 L10.8571429,16.9421082 L10.8571429,16.9421082 L5.37869715,19.7282896 C4.47618541,20.1872813 3.37246874,19.8277374 2.91347698,18.9252256 C2.78253703,18.6677595 2.71428571,18.3829971 2.71428571,18.0941475 L2.71428571,4.70865885 C2.71428571,3.69613681 3.53509701,2.87532552 4.54761905,2.87532552 Z" id="矩形" fill="#EAF4FE"></path>
                <path d="M17.1666667,0.75 C17.4658209,0.75 17.7366542,0.871256214 17.932699,1.06730099 C18.1287438,1.26334576 18.25,1.53417909 18.25,1.83333333 L18.25,1.83333333 L18.25,19.0383979 C18.25,19.3375521 18.1287438,19.6083855 17.932699,19.8044303 C17.7366542,20.000475 17.4658209,20.1217312 17.1666667,20.1217312 L17.1666667,20.1217312 L9.5,16.4292511 L2.31641209,20.0080607 C2.04864709,20.1414593 1.75216095,20.1536957 1.48926643,20.0656413 C1.22637191,19.9775869 0.997069008,19.7892417 0.863670492,19.5214767 L0.863670492,19.5214767 L0.75,1.83333333 C0.75,1.53417909 0.871256214,1.26334576 1.06730099,1.06730099 C1.26334576,0.871256214 1.53417909,0.75 1.83333333,0.75 L1.83333333,0.75 Z" id="矩形备份-22" stroke="#333333" stroke-width="1.5"></path>
                <ellipse id="椭圆形" fill="#3990F7" cx="9.95238095" cy="7.33333333" rx="1.80952381" ry="1.83333333"></ellipse>
            </g>
        </g>
    </g>
</svg>