<?xml version="1.0" encoding="UTF-8"?>
<svg width="56px" height="56px" viewBox="0 0 56 56" version="1.1" xmlns="http://www.w3.org/2000/svg" xmlns:xlink="http://www.w3.org/1999/xlink">
    <title>播放</title>
    <g id="页面-1" stroke="none" stroke-width="1" fill="none" fill-rule="evenodd">
        <g id="icon-备份" transform="translate(-199.000000, -91.000000)" fill="#FFFFFF">
            <g id="播放" transform="translate(199.000000, 91.000000)">
                <path d="M28,0 C43.463973,0 56,12.536027 56,28 C56,43.463973 43.463973,56 28,56 C12.536027,56 0,43.463973 0,28 C0,12.536027 12.536027,0 28,0 Z M22,18 C20.8954305,18 20,18.8954305 20,20 L20,20 L20,36 C20,37.1045695 20.8954305,38 22,38 C23.1045695,38 24,37.1045695 24,36 L24,36 L24,20 C24,18.8954305 23.1045695,18 22,18 Z M34,18 C32.8954305,18 32,18.8954305 32,20 L32,20 L32,36 C32,37.1045695 32.8954305,38 34,38 C35.1045695,38 36,37.1045695 36,36 L36,36 L36,20 C36,18.8954305 35.1045695,18 34,18 Z"></path>
            </g>
        </g>
    </g>
</svg>