<?xml version="1.0" encoding="UTF-8"?>
<svg width="56px" height="56px" viewBox="0 0 56 56" version="1.1" xmlns="http://www.w3.org/2000/svg" xmlns:xlink="http://www.w3.org/1999/xlink">
    <title>暂停</title>
    <g id="页面-1" stroke="none" stroke-width="1" fill="none" fill-rule="evenodd">
        <g id="icon-备份" transform="translate(-199.000000, -168.000000)" fill="#FFFFFF">
            <g id="暂停" transform="translate(199.000000, 168.000000)">
                <path d="M28,0 C43.463973,0 56,12.536027 56,28 C56,43.463973 43.463973,56 28,56 C12.536027,56 0,43.463973 0,28 C0,12.536027 12.536027,0 28,0 Z M24.1583547,19.394839 C23.0537852,19.394839 22.1583547,20.2902695 22.1583547,21.394839 L22.1583547,21.394839 L22.1583547,35.4820539 C22.1583547,35.8675783 22.2697798,36.2448867 22.4792173,36.568561 C23.0792785,37.4959229 24.3174997,37.7612526 25.2448617,37.1611913 L25.2448617,37.1611913 L36.4793656,29.8917637 C36.7328934,29.7277153 36.9459822,29.5083867 37.102647,29.250231 C37.6757002,28.3059409 37.3747533,27.0758911 36.4304633,26.5028379 L36.4304633,26.5028379 L25.1959594,19.6850505 C24.8831504,19.4952188 24.5242584,19.394839 24.1583547,19.394839 Z"></path>
            </g>
        </g>
    </g>
</svg>