<?xml version="1.0" encoding="UTF-8"?>
<svg width="22px" height="22px" viewBox="0 0 22 22" version="1.1" xmlns="http://www.w3.org/2000/svg" xmlns:xlink="http://www.w3.org/1999/xlink">
    <title>消 息 (1)</title>
    <g id="页面-1" stroke="none" stroke-width="1" fill="none" fill-rule="evenodd">
        <g id="icon-备份" transform="translate(-186.000000, -427.000000)">
            <g id="消-息-(1)" transform="translate(186.000000, 427.000000)">
                <circle id="椭圆形" fill="#FEFBE9" cx="11.88" cy="11.88" r="9.24"></circle>
                <path d="M3.06185567,18.6206186 L2.21134021,20.3556701 C1.96185567,20.6505155 1.90515464,21.0701031 2.07525773,21.4216495 C2.24536082,21.7731959 2.59690722,22 2.98247423,22 L11,22 C17.0670103,22 22,17.0670103 22,11 C22,4.93298969 17.0670103,0 11,0 C4.93298969,0 0,4.93298969 0,11 C0,13.8350515 1.08865979,16.5680412 3.06185567,18.6206186 Z M4.49072165,20.3896907 C4.91030928,19.357732 4.97835052,18.2804124 4.2185567,17.4979381 C2.54020619,15.7515464 1.59896907,13.4154639 1.59896907,11 C1.59896907,5.81752577 5.80618557,1.61030928 10.9886598,1.61030928 C16.171134,1.61030928 20.3783505,5.81752577 20.3783505,11 C20.3783505,16.1824742 16.171134,20.3896907 10.9886598,20.3896907 L4.49072165,20.3896907 Z" id="形状" fill="#000000" fill-rule="nonzero"></path>
                <path d="M13.4835052,9.06082474 C12.9845361,9.06082474 12.7350515,9.27628866 12.7350515,9.70721649 L12.7350515,11 C12.7350515,11.4309278 12.9845361,11.6463918 13.4835052,11.6463918 C13.9824742,11.6463918 14.2319588,11.4309278 14.2319588,11 L14.2319588,9.70721649 C14.2319588,9.27628866 13.9824742,9.06082474 13.4835052,9.06082474 L13.4835052,9.06082474 Z" id="路径" fill="#FCCD2E" fill-rule="nonzero"></path>
                <path d="M8.51649485,9.06082474 C8.01752577,9.06082474 7.76804124,9.27628866 7.76804124,9.70721649 L7.76804124,11 C7.76804124,11.4309278 8.01752577,11.6463918 8.51649485,11.6463918 C9.01546392,11.6463918 9.26494845,11.4309278 9.26494845,11 L9.26494845,9.70721649 C9.25360825,9.27628866 9.00412371,9.06082474 8.51649485,9.06082474 L8.51649485,9.06082474 Z" id="路径" fill="#FCCD2E" fill-rule="nonzero"></path>
                <path d="M11,15.6041237 C11.7257732,15.6041237 12.4175258,15.2412371 12.8824742,14.6175258 C12.9618557,14.5154639 12.9505155,14.3680412 12.8597938,14.2886598 C12.8257732,14.2546392 12.7804124,14.2319588 12.7237113,14.2319588 C12.6670103,14.2319588 12.5989691,14.2659794 12.5649485,14.3113402 C12.1680412,14.8329897 11.5896907,15.1391753 10.9886598,15.1391753 C10.3762887,15.1391753 9.80927835,14.8443299 9.41237113,14.3113402 C9.36701031,14.2546392 9.31030928,14.2319588 9.25360825,14.2319588 C9.20824742,14.2319588 9.1628866,14.2546392 9.11752577,14.2886598 C9.07216495,14.3340206 9.04948454,14.3907216 9.04948454,14.4474227 C9.04948454,14.5041237 9.06082474,14.5721649 9.09484536,14.6175258 C9.58247423,15.2525773 10.2742268,15.6041237 11,15.6041237 Z" id="路径" fill="#FCCD2E" fill-rule="nonzero"></path>
            </g>
        </g>
    </g>
</svg>