<?xml version="1.0" encoding="UTF-8"?>
<svg width="18px" height="17px" viewBox="0 0 18 17" version="1.1" xmlns="http://www.w3.org/2000/svg" xmlns:xlink="http://www.w3.org/1999/xlink">
    <title>目录</title>
    <g id="页面-1" stroke="none" stroke-width="1" fill="none" fill-rule="evenodd" opacity="0.506131904">
        <g id="icon-备份" transform="translate(-356.000000, -115.000000)" fill="#E9EAEB" fill-rule="nonzero">
            <g id="目录" transform="translate(356.000000, 115.000000)">
                <path d="M4.9995,0.503949587 L18,0.503949587 L18,2.51522144 L4.9995,2.51522144 L4.9995,0.503949587 Z M1.5,3.0176622 C0.671572875,3.0176622 0,2.34213551 0,1.5088311 C0,0.675526693 0.671572875,0 1.5,0 C2.32842712,0 3,0.675526693 3,1.5088311 C3,2.34213551 2.32842712,3.0176622 1.5,3.0176622 Z M1.5,10.0593769 C0.671572875,10.0593769 0,9.38385025 0,8.55054584 C0,7.71724144 0.671572875,7.04171474 1.5,7.04171474 C2.32842712,7.04171474 3,7.71724144 3,8.55054584 C3,9.38385025 2.32842712,10.0593769 1.5,10.0593769 Z M1.5,17 C0.671572875,17 0,16.3244733 0,15.4911689 C0,14.6578645 0.671572875,13.9823378 1.5,13.9823378 C2.32842712,13.9823378 3,14.6578645 3,15.4911689 C3,16.3244733 2.32842712,17 1.5,17 Z M4.9995,7.5441555 L18,7.5441555 L18,9.55693619 L4.9995,9.55693619 L4.9995,7.5441555 L4.9995,7.5441555 Z M4.9995,14.5858702 L18,14.5858702 L18,16.5971421 L4.9995,16.5971421 L4.9995,14.5858702 Z" id="形状"></path>
            </g>
        </g>
    </g>
</svg>