<?xml version="1.0" encoding="UTF-8"?>
<svg width="29px" height="17px" viewBox="0 0 29 17" version="1.1" xmlns="http://www.w3.org/2000/svg" xmlns:xlink="http://www.w3.org/1999/xlink">
    <title>编组 2</title>
    <g id="页面-1" stroke="none" stroke-width="1" fill="none" fill-rule="evenodd">
        <g id="icon-备份" transform="translate(-372.000000, -22.000000)">
            <g id="编组-2" transform="translate(372.000000, 22.000000)">
                <path d="M20.6513955,0.5 C21.760561,0.5 22.8040765,1.0257417 23.4641515,1.91711651 L23.4641515,1.91711651 L26.7964618,6.41711651 C27.2546245,7.03582599 27.4837058,7.767913 27.4837058,8.5 C27.4837058,9.232087 27.2546245,9.96417401 26.7964618,10.5828835 L26.7964618,10.5828835 L23.4641515,15.0828835 C22.8040765,15.9742583 21.760561,16.5 20.6513955,16.5 L20.6513955,16.5 L4,16.5 C3.03350169,16.5 2.15850169,16.1082492 1.52512627,15.4748737 C0.891750844,14.8414983 0.5,13.9664983 0.5,13 L0.5,13 L0.5,4 C0.5,3.03350169 0.891750844,2.15850169 1.52512627,1.52512627 C2.15850169,0.891750844 3.03350169,0.5 4,0.5 L4,0.5 Z" id="矩形" stroke="#979797"></path>
                <path d="M4,13.01 C5.94,12.26 7.19,11.31 7.73,10.15 C7.81,9.97 7.89,9.79 7.96,9.6 L8.48,9.6 L8.48,11.79 C8.48,12.49 8.79,12.84 9.41,12.84 L11.37,12.84 C11.72,12.84 11.97,12.75 12.13,12.57 C12.31,12.36 12.43,11.77 12.5,10.81 L11.81,10.59 C11.78,11.34 11.72,11.79 11.62,11.95 C11.54,12.07 11.42,12.14 11.24,12.14 L9.63,12.14 C9.34,12.14 9.2,11.97 9.2,11.64 L9.2,9.6 L11.48,9.6 L11.48,6.57 L9.03,6.57 C9.44,6.21 9.85,5.77 10.27,5.25 L10.27,4.7 L6.82,4.7 C7,4.46 7.17,4.21 7.33,3.95 L6.61,3.78 C5.8,5.02 4.77,6.01 3.51,6.77 L3.97,7.32 C4.23,7.15 4.49,6.97 4.75,6.78 L4.75,9.6 L7.19,9.6 C7.13,9.74 7.07,9.89 7,10.03 C6.44,10.99 5.28,11.8 3.54,12.44 L4,13.01 Z M8.11,6.57 L5.02,6.57 C5.48,6.2 5.9,5.8 6.29,5.36 L9.33,5.36 C8.93,5.82 8.53,6.22 8.11,6.57 Z M10.79,8.92 L8.16,8.92 C8.28,8.41 8.34,7.85 8.36,7.24 L10.79,7.24 L10.79,8.92 Z M7.41,8.92 L5.45,8.92 L5.45,7.24 L7.64,7.24 C7.62,7.85 7.54,8.41 7.41,8.92 Z M15.68,11.44 L15.68,9.36 L20.58,9.36 L20.58,11.44 L21.29,11.44 L21.29,8.72 L15.15,8.72 C15.73,8.52 16.17,8.27 16.49,7.97 C16.67,7.78 16.83,7.56 16.96,7.31 L18.71,7.31 L18.71,8.45 L19.41,8.45 L19.41,7.31 L21.42,7.31 C21.41,7.57 21.38,7.74 21.32,7.83 C21.24,7.93 21.05,7.98 20.74,7.98 C20.58,7.98 20.41,7.97 20.23,7.96 L20.37,8.47 C20.51,8.47 20.67,8.48 20.83,8.48 C21.37,8.48 21.72,8.37 21.87,8.15 C22.02,7.96 22.1,7.5 22.1,6.76 L19.41,6.76 L19.41,6.13 L21.62,6.13 L21.62,4.33 L19.41,4.33 L19.41,3.81 L18.71,3.81 L18.71,4.33 L17.25,4.33 L17.25,3.81 L16.55,3.81 L16.55,4.33 L14.27,4.33 L14.27,4.92 L16.55,4.92 L16.55,5.56 L14.53,5.56 L14.18,7.31 L16.15,7.31 C16.09,7.39 16.02,7.47 15.95,7.55 C15.56,7.91 14.86,8.2 13.84,8.42 L14.2,8.99 C14.46,8.93 14.72,8.86 14.97,8.78 L14.97,11.44 L15.68,11.44 Z M18.71,5.56 L17.25,5.56 L17.25,4.92 L18.71,4.92 L18.71,5.56 Z M20.94,5.56 L19.41,5.56 L19.41,4.92 L20.94,4.92 L20.94,5.56 Z M16.44,6.76 L14.96,6.76 L15.12,6.13 L16.55,6.13 C16.54,6.35 16.5,6.56 16.44,6.76 Z M18.71,6.76 L17.16,6.76 C17.2,6.56 17.23,6.35 17.25,6.13 L18.71,6.13 L18.71,6.76 Z M14.09,13.01 C15.89,12.88 17.04,12.57 17.56,12.08 C18.03,11.68 18.33,10.92 18.46,9.78 L17.74,9.71 C17.66,10.62 17.4,11.27 16.95,11.66 C16.44,12.06 15.39,12.29 13.8,12.37 L14.09,13.01 Z M21.82,13.05 L22.21,12.45 C21.14,11.99 19.96,11.61 18.67,11.3 L18.31,11.84 C19.51,12.13 20.68,12.53 21.82,13.05 Z" id="免费" fill="#999999" fill-rule="nonzero"></path>
            </g>
        </g>
    </g>
</svg>