<?xml version="1.0" encoding="UTF-8"?>
<svg width="58px" height="57px" viewBox="0 0 58 57" version="1.1" xmlns="http://www.w3.org/2000/svg" xmlns:xlink="http://www.w3.org/1999/xlink">
    <title>评论</title>
    <defs>
        <filter x="-108.0%" y="-118.8%" width="315.9%" height="339.3%" filterUnits="objectBoundingBox" id="filter-1">
            <feOffset dx="0" dy="4" in="SourceAlpha" result="shadowOffsetOuter1"></feOffset>
            <feGaussianBlur stdDeviation="4" in="shadowOffsetOuter1" result="shadowBlurOuter1"></feGaussianBlur>
            <feColorMatrix values="0 0 0 0 0   0 0 0 0 0   0 0 0 0 0  0 0 0 0.154884178 0" type="matrix" in="shadowBlurOuter1" result="shadowMatrixOuter1"></feColorMatrix>
            <feMerge>
                <feMergeNode in="shadowMatrixOuter1"></feMergeNode>
                <feMergeNode in="SourceGraphic"></feMergeNode>
            </feMerge>
        </filter>
    </defs>
    <g id="页面-1" stroke="none" stroke-width="1" fill="none" fill-rule="evenodd" stroke-linecap="round">
        <g id="icon-备份" transform="translate(-195.000000, -4.000000)" stroke="#CCCDD0" stroke-width="1.5">
            <g id="评论" filter="url(#filter-1)" transform="translate(213.000000, 22.000000)">
                <g id="编组-29">
                    <path d="M4.59980469,17.4443242 L4.4,17.4443242 C1.9699471,17.4443242 0,15.4918017 0,13.0832431 L0,4.36108104 C0,1.95252249 1.9699471,0 4.4,0 C8.02719907,0 10.7475984,0 12.5611979,0 M22,7.68157862 C22,8.88194851 22,10.6825033 22,13.0832431 C22,15.4918017 20.4163302,17.4443242 18.4627744,17.4443242 L15.7338602,17.4443242 L13.1569361,20 L11,17.4443242" id="形状"></path>
                    <line x1="4.54186198" y1="5.96225578" x2="16.1497396" y2="5.96225578" id="路径-28"></line>
                    <line x1="4.54186198" y1="10" x2="11.9953125" y2="10" id="路径-29"></line>
                </g>
            </g>
        </g>
    </g>
</svg>