<?xml version="1.0" encoding="UTF-8"?>
<svg width="22px" height="22px" viewBox="0 0 22 22" version="1.1" xmlns="http://www.w3.org/2000/svg" xmlns:xlink="http://www.w3.org/1999/xlink">
    <title>钱包</title>
    <g id="页面-1" stroke="none" stroke-width="1" fill="none" fill-rule="evenodd">
        <g id="icon-备份" transform="translate(-322.000000, -427.000000)">
            <g id="钱包" transform="translate(322.000000, 427.000000)">
                <rect id="矩形" fill="#FFE7F3" x="2.35458097" y="2.79583333" width="18" height="19.1583333" rx="1.83333333"></rect>
                <path d="M20.5761719,8.9375 L20.5761719,13.9791667 L14.4720052,13.9791667 C13.7758963,13.9791667 13.145688,13.6970128 12.6895069,13.2408317 C12.2333258,12.7846506 11.9511719,12.1544422 11.9511719,11.4583333 C11.9511719,10.7622244 12.2333258,10.1320161 12.6895069,9.67583499 C13.145688,9.21965388 13.7758963,8.9375 14.4720052,8.9375 L14.4720052,8.9375 L20.5761719,8.9375 Z" id="矩形" stroke="#333333" stroke-width="1.375"></path>
                <ellipse id="椭圆形" fill="#F1354E" cx="15.354581" cy="11.4583333" rx="1.36363636" ry="1.375"></ellipse>
                <path d="M17.5970052,0.75 C18.4024205,0.75 19.1315871,1.07645904 19.6594,1.60427189 C20.1872128,2.13208474 20.5136719,2.86125141 20.5136719,3.66666667 L20.5136719,3.66666667 L20.5136719,18.3333333 C20.5136719,19.1387486 20.1872128,19.8679153 19.6594,20.3957281 C19.1315871,20.923541 18.4024205,21.25 17.5970052,21.25 L17.5970052,21.25 L3.66666667,21.25 C2.86125141,21.25 2.13208474,20.923541 1.60427189,20.3957281 C1.07645904,19.8679153 0.75,19.1387486 0.75,18.3333333 L0.75,18.3333333 L0.75,3.66666667 C0.75,2.86125141 1.07645904,2.13208474 1.60427189,1.60427189 C2.13208474,1.07645904 2.86125141,0.75 3.66666667,0.75 L3.66666667,0.75 L17.5970052,0.75 Z" id="矩形" stroke="#333333" stroke-width="1.5"></path>
            </g>
        </g>
    </g>
</svg>