<?xml version="1.0" encoding="UTF-8"?>
<svg width="25px" height="25px" viewBox="0 0 25 25" version="1.1" xmlns="http://www.w3.org/2000/svg" xmlns:xlink="http://www.w3.org/1999/xlink">
    <title>帮助中心</title>
    <g id="页面-1" stroke="none" stroke-width="1" fill="none" fill-rule="evenodd">
        <g id="画板" transform="translate(-60.000000, -107.000000)">
            <g id="帮助中心" transform="translate(60.000000, 107.000000)">
                <path d="M10.7914003,5.60579427 L20.5491395,5.60579427 C20.997305,5.60579427 21.3652111,5.96024981 21.3818952,6.40810461 L21.7745984,16.9495057 C21.8945331,20.1689335 19.3818975,22.8760217 16.1624696,22.9959564 C16.090114,22.9986519 16.0177145,23 15.9453087,23 L7.458067,23 C6.99782971,23 6.62473366,22.626904 6.62473366,22.1666667 L6.62473366,9.77246094 C6.62473366,7.47127448 8.49021387,5.60579427 10.7914003,5.60579427 Z" id="矩形备份-19" fill="#E8FAEA"></path>
                <path d="M19.5,3.75 C19.9832492,3.75 20.4207492,3.94587542 20.7374369,4.26256313 C21.0541246,4.57925084 21.25,5.01675084 21.25,5.5 L21.25,5.5 L21.25,17.1666667 C21.25,18.5703904 20.6810285,19.8412237 19.7611261,20.7611261 C18.8412237,21.6810285 17.5703904,22.25 16.1666667,22.25 L16.1666667,22.25 L6.5,22.25 C6.01675084,22.25 5.57925084,22.0541246 5.26256313,21.7374369 C4.94587542,21.4207492 4.75,20.9832492 4.75,20.5 L4.75,20.5 L4.75,8.83333333 C4.75,7.42960959 5.31897146,6.15877626 6.23887386,5.23887386 C7.15877626,4.31897146 8.42960959,3.75 9.83333333,3.75 L9.83333333,3.75 Z" id="矩形" stroke="#333333" stroke-width="1.5"></path>
                <rect id="矩形" fill="#0BCC21" x="8.09090909" y="9.66666667" width="4.09090909" height="1.25" rx="0.625"></rect>
                <rect id="矩形备份-20" fill="#0BCC21" x="8.09090909" y="13" width="5.72727273" height="1.25" rx="0.625"></rect>
            </g>
        </g>
    </g>
</svg>