<?xml version="1.0" encoding="UTF-8"?>
<svg width="25px" height="25px" viewBox="0 0 25 25" version="1.1" xmlns="http://www.w3.org/2000/svg" xmlns:xlink="http://www.w3.org/1999/xlink">
    <title>我的追剧</title>
    <g id="页面-1" stroke="none" stroke-width="1" fill="none" fill-rule="evenodd">
        <g id="画板" transform="translate(-61.000000, -192.000000)">
            <g id="我的追剧" transform="translate(61.000000, 192.000000)">
                <path d="M7.54761905,4.87532552 L20.1666667,4.87532552 C21.1791887,4.87532552 22,5.69613681 22,6.70865885 L22,20.0941475 C22,21.1066696 21.1791887,21.9274808 20.1666667,21.9274808 C19.8778171,21.9274808 19.5930547,21.8592295 19.3355886,21.7282896 L13.8571429,18.9421082 L13.8571429,18.9421082 L8.37869715,21.7282896 C7.47618541,22.1872813 6.37246874,21.8277374 5.91347698,20.9252256 C5.78253703,20.6677595 5.71428571,20.3829971 5.71428571,20.0941475 L5.71428571,6.70865885 C5.71428571,5.69613681 6.53509701,4.87532552 7.54761905,4.87532552 Z" id="矩形" fill="#EAF4FE"></path>
                <path d="M20.1666667,2.75 C20.4658209,2.75 20.7366542,2.87125621 20.932699,3.06730099 C21.1287438,3.26334576 21.25,3.53417909 21.25,3.83333333 L21.25,3.83333333 L21.25,21.0383979 C21.25,21.3375521 21.1287438,21.6083855 20.932699,21.8044303 C20.7366542,22.000475 20.4658209,22.1217312 20.1666667,22.1217312 L20.1666667,22.1217312 L12.5,18.4292511 L5.31641209,22.0080607 C5.04864709,22.1414593 4.75216095,22.1536957 4.48926643,22.0656413 C4.22637191,21.9775869 3.99706901,21.7892417 3.86367049,21.5214767 L3.86367049,21.5214767 L3.75,3.83333333 C3.75,3.53417909 3.87125621,3.26334576 4.06730099,3.06730099 C4.26334576,2.87125621 4.53417909,2.75 4.83333333,2.75 L4.83333333,2.75 Z" id="矩形备份-22" stroke="#333333" stroke-width="1.5"></path>
                <ellipse id="椭圆形" fill="#3990F7" cx="12.952381" cy="9.33333333" rx="1.80952381" ry="1.83333333"></ellipse>
            </g>
        </g>
    </g>
</svg>