<?xml version="1.0" encoding="UTF-8"?>
<svg width="26px" height="25px" viewBox="0 0 26 25" version="1.1" xmlns="http://www.w3.org/2000/svg" xmlns:xlink="http://www.w3.org/1999/xlink">
    <title>星形</title>
    <g id="页面-1" stroke="none" stroke-width="1" fill="none" fill-rule="evenodd">
        <g id="画板" transform="translate(-180.000000, -107.000000)">
            <g id="日常任务" transform="translate(192.500000, 120.000000) rotate(10.000000) translate(-192.500000, -120.000000) translate(183.000000, 109.000000)">
                <path d="M1.11764706,4.7962721 C2.59293016,3.82242382 4.41313002,3.33549968 6.57824665,3.33549968 C9.82592158,3.33549968 9.50092136,5.15674031 12.9351211,5.56059508 C14.7862391,5.77828271 16.8078654,5.52350838 19,4.7962721 L19,8.61508998 L19,12.4339079 C16.7198042,13.1713912 14.6189941,13.4261656 12.6975697,13.1982308 C9.42276022,12.8097467 9.50320781,10.9731354 6.68610781,10.9731354 C4.80804114,10.9731354 2.95188756,11.4600596 1.11764706,12.4339079 L1.11764706,4.7962721 Z" id="矩形备份-21" fill="#FDEBEB"></path>
                <path d="M5.80188706,0.75 C7.32684156,0.75 7.97332627,1.37136439 8.68027605,2.01854064 C9.54569713,2.81078923 10.4771029,3.64542748 12.437497,3.95929758 C14.2316892,4.24655781 16.1698891,4.01211766 18.25,3.23410378 L18.25,3.23410378 L18.25,12.6647971 C16.1529308,13.5190663 14.2115102,13.8154246 12.4232493,13.5266061 C10.8962578,13.2799847 10.15314,12.5641605 9.46264661,11.9202501 C8.53152359,11.0519439 7.670391,10.2982823 5.91648955,10.2982823 C4.18010728,10.2982823 2.45641883,10.7863799 0.75,11.7783185 L0.75,11.7783185 L0.75,2.45678622 C2.13656847,1.31357167 3.82268811,0.75 5.80188706,0.75 Z" id="矩形" stroke="#333333" stroke-width="1.5"></path>
                <rect id="矩形" stroke="#333333" stroke-width="1.10805291" fill="#D8D8D8" x="0.554026453" y="1.56229011" width="1" height="19.8836834" rx="0.5"></rect>
                <polygon id="星形" fill="#FA3449" transform="translate(10.136124, 7.443254) rotate(21.000000) translate(-10.136124, -7.443254) " points="10.1291849 8.75852564 8.81459672 9.44740621 9.07076853 7.99804938 8.0133646 6.97636991 9.48097449 6.75941528 10.1420511 5.43910208 10.7929121 6.75437357 12.2588838 6.96005459 11.1935281 7.98989172 11.4384719 9.43732279"></polygon>
            </g>
        </g>
    </g>
</svg>