<?xml version="1.0" encoding="UTF-8"?>
<svg width="25px" height="25px" viewBox="0 0 25 25" version="1.1" xmlns="http://www.w3.org/2000/svg" xmlns:xlink="http://www.w3.org/1999/xlink">
    <title>椭圆形备份 16</title>
    <g id="页面-1" stroke="none" stroke-width="1" fill="none" fill-rule="evenodd">
        <g id="画板" transform="translate(-61.000000, -28.000000)">
            <path d="M73.0929985,51.0961914 C74.0884831,51.0961914 75.0496748,48.1875181 75.9560991,47.9640092 C80.031658,46.9590454 83,43.8641027 83,40.2019199 C83,35.7252497 78.5644843,32.0961914 73.0929985,32.0961914 C67.6215126,32.0961914 63.185997,35.7252497 63.185997,40.2019199 C63.185997,44.0780349 66.5112693,47.3187016 70.9551026,48.1184292 C71.6436187,48.2423369 72.3589865,51.0961914 73.0929985,51.0961914 Z" id="椭圆形备份-16" fill="#FEEAEC"></path>
            <path d="M73,30.75 C75.8499493,30.75 78.4341825,31.687273 80.3032463,33.2165069 C82.1122879,34.6966319 83.25,36.7358631 83.25,39 C83.25,40.8214312 82.5130327,42.4993459 81.2820889,43.8557954 C79.9824209,45.2879762 78.13562,46.3635081 75.9994157,46.89026 C75.4171254,47.0338429 74.7333637,47.8751274 74.0964388,48.8851987 C73.7729837,49.3981521 73.4943434,50.1801864 73.1202815,50.3232417 C72.919638,50.0698327 72.7442694,49.7242235 72.5668562,49.3662771 C71.7931966,47.7867167 71.2027944,47.1316156 70.7590775,47.0517628 C68.4317172,46.632923 66.3957418,45.5749881 64.9534492,44.1053307 C63.5816436,42.7074978 62.75,40.9350171 62.75,39 C62.75,36.7358631 63.8877121,34.6966319 65.6967537,33.2165069 C67.5658175,31.687273 70.1500507,30.75 73,30.75 Z" id="椭圆形" stroke="#272727" stroke-width="1.5"></path>
            <g id="音符" transform="translate(71.000000, 35.000000)" fill="#FD3351" fill-rule="nonzero">
                <path d="M3.00101224,0.499942958 L3.00101224,4.6878742 C2.69588558,4.52996828 2.35180273,4.44618975 2.00143228,4.44449288 C1.29411136,4.42374877 0.630618564,4.75788956 0.270265099,5.31632385 C-0.0900883662,5.87475813 -0.0900883662,6.56882204 0.270265099,7.12725633 C0.630618564,7.68569061 1.29411136,8.0198314 2.00143228,7.9990873 C2.52380608,8.00661726 3.02801761,7.82343895 3.40299675,7.48990374 C3.77797588,7.15636853 3.9929603,6.6998388 4.00059221,6.2208811 L4.00059221,1.7782062 L5.03115345,1.7782062 C5.56651315,1.77732878 6,1.37916454 6,0.888307732 C6,0.652713872 5.89792539,0.426769323 5.71623142,0.260179308 C5.53453744,0.0935892928 5.28810753,0 5.03115345,0 L3.54628274,0 C3.24513816,0 3.00101224,0.223832087 3.00101224,0.499942958 Z" id="路径"></path>
            </g>
        </g>
    </g>
</svg>