<?xml version="1.0" encoding="UTF-8"?>
<svg width="25px" height="25px" viewBox="0 0 25 25" version="1.1" xmlns="http://www.w3.org/2000/svg" xmlns:xlink="http://www.w3.org/1999/xlink">
    <title>消 息 (1)</title>
    <g id="页面-1" stroke="none" stroke-width="1" fill="none" fill-rule="evenodd">
        <g id="画板" transform="translate(-179.000000, -193.000000)">
            <g id="消-息-(1)" transform="translate(179.000000, 193.000000)">
                <circle id="椭圆形" fill="#FEFBE9" cx="13.88" cy="12.88" r="9.24"></circle>
                <path d="M5.06185567,19.6206186 L4.21134021,21.3556701 C3.96185567,21.6505155 3.90515464,22.0701031 4.07525773,22.4216495 C4.24536082,22.7731959 4.59690722,23 4.98247423,23 L13,23 C19.0670103,23 24,18.0670103 24,12 C24,5.93298969 19.0670103,1 13,1 C6.93298969,1 2,5.93298969 2,12 C2,14.8350515 3.08865979,17.5680412 5.06185567,19.6206186 Z M6.49072165,21.3896907 C6.91030928,20.357732 6.97835052,19.2804124 6.2185567,18.4979381 C4.54020619,16.7515464 3.59896907,14.4154639 3.59896907,12 C3.59896907,6.81752577 7.80618557,2.61030928 12.9886598,2.61030928 C18.171134,2.61030928 22.3783505,6.81752577 22.3783505,12 C22.3783505,17.1824742 18.171134,21.3896907 12.9886598,21.3896907 L6.49072165,21.3896907 Z" id="形状" fill="#000000" fill-rule="nonzero"></path>
                <path d="M15.4835052,10.0608247 C14.9845361,10.0608247 14.7350515,10.2762887 14.7350515,10.7072165 L14.7350515,12 C14.7350515,12.4309278 14.9845361,12.6463918 15.4835052,12.6463918 C15.9824742,12.6463918 16.2319588,12.4309278 16.2319588,12 L16.2319588,10.7072165 C16.2319588,10.2762887 15.9824742,10.0608247 15.4835052,10.0608247 L15.4835052,10.0608247 Z" id="路径" fill="#FCCD2E" fill-rule="nonzero"></path>
                <path d="M10.5164948,10.0608247 C10.0175258,10.0608247 9.76804124,10.2762887 9.76804124,10.7072165 L9.76804124,12 C9.76804124,12.4309278 10.0175258,12.6463918 10.5164948,12.6463918 C11.0154639,12.6463918 11.2649485,12.4309278 11.2649485,12 L11.2649485,10.7072165 C11.2536082,10.2762887 11.0041237,10.0608247 10.5164948,10.0608247 L10.5164948,10.0608247 Z" id="路径" fill="#FCCD2E" fill-rule="nonzero"></path>
                <path d="M13,16.6041237 C13.7257732,16.6041237 14.4175258,16.2412371 14.8824742,15.6175258 C14.9618557,15.5154639 14.9505155,15.3680412 14.8597938,15.2886598 C14.8257732,15.2546392 14.7804124,15.2319588 14.7237113,15.2319588 C14.6670103,15.2319588 14.5989691,15.2659794 14.5649485,15.3113402 C14.1680412,15.8329897 13.5896907,16.1391753 12.9886598,16.1391753 C12.3762887,16.1391753 11.8092784,15.8443299 11.4123711,15.3113402 C11.3670103,15.2546392 11.3103093,15.2319588 11.2536082,15.2319588 C11.2082474,15.2319588 11.1628866,15.2546392 11.1175258,15.2886598 C11.0721649,15.3340206 11.0494845,15.3907216 11.0494845,15.4474227 C11.0494845,15.5041237 11.0608247,15.5721649 11.0948454,15.6175258 C11.5824742,16.2525773 12.2742268,16.6041237 13,16.6041237 Z" id="路径" fill="#FCCD2E" fill-rule="nonzero"></path>
            </g>
        </g>
    </g>
</svg>