<?xml version="1.0" encoding="UTF-8"?>
<svg width="24px" height="20px" viewBox="0 0 24 20" version="1.1" xmlns="http://www.w3.org/2000/svg" xmlns:xlink="http://www.w3.org/1999/xlink">
    <title>编组 35</title>
    <g id="页面-1" stroke="none" stroke-width="1" fill="none" fill-rule="evenodd">
        <g id="画板" transform="translate(-317.000000, -110.000000)" fill-rule="nonzero">
            <g id="编组-35" transform="translate(318.000000, 111.000000)">
                <path d="M19.9944826,5.06732053 C18.7918909,3.86023903 17.5827219,2.6594912 16.3670275,1.46512872 C15.7704901,0.879440241 14.181416,0.847040453 13.5434172,1.38371385 C11.742805,2.90068854 8.59257977,2.90151931 6.76996762,1.38620614 C6.11927646,0.844548161 4.54374079,0.875286409 3.94551109,1.46180566 C2.7431623,2.64406637 1.54668868,3.83207271 0.356132841,5.02578235 C-0.121097082,5.50264077 -0.118558625,5.78177741 0.362902053,6.2752511 C0.963670212,6.89084708 1.57713068,7.49647389 2.18636037,8.10542374 C2.81674387,8.73597346 2.87343606,8.74511185 3.73904991,8.33388379 L3.73904991,8.99434101 C3.73904991,11.4417712 3.73651146,13.8892013 3.74074221,16.3374622 C3.74243451,17.2928406 4.07158779,17.6135154 5.03958608,17.6135154 C8.44788772,17.6160077 11.8570355,17.6160077 15.2653372,17.6135154 C16.2274124,17.6135154 16.5675656,17.2837022 16.5684118,16.3374622 C16.5734887,13.9074781 16.5701041,11.477494 16.5701041,9.04917142 L16.5701041,8.33471454 C17.3282566,8.69692757 17.5008717,8.71105054 17.8427172,8.37791427 C18.5763313,7.66096512 19.3031762,6.93570832 20.0164826,6.19882082 C20.4141742,5.78676197 20.4023281,5.47605632 19.9944826,5.06732053" id="路径备份" fill="#EFF0FF"></path>
                <path d="M12.0397428,11.5812907 L8.80758189,11.5812907 C8.59364093,11.581529 8.38836582,11.4983159 8.2369148,11.3499568 C8.08546379,11.2015977 8.00024298,11.0002455 8,10.7901954 C8.00101142,10.3531403 8.36243019,9.99950275 8.80758189,10 L12.0397428,10 C12.4848945,9.99950275 12.8463133,10.3531403 12.8473247,10.7901954 C12.8470818,11.0002455 12.7618609,11.2015977 12.6104099,11.3499568 C12.4589589,11.4983159 12.2536838,11.581529 12.0397428,11.5812907" id="路径" fill="#5955FB"></path>
                <path d="M12.0397428,14.5812907 L8.80758189,14.5812907 C8.59364093,14.581529 8.38836582,14.4983159 8.2369148,14.3499568 C8.08546379,14.2015977 8.00024298,14.0002455 8,13.7901953 C8.00101143,13.3531403 8.3624302,12.9995027 8.80758189,13 L12.0397428,13 C12.4848945,12.9995027 12.8463133,13.3531403 12.8473247,13.7901953 C12.8470818,14.0002455 12.7618609,14.2015977 12.6104099,14.3499568 C12.4589589,14.4983159 12.2536838,14.581529 12.0397428,14.5812907" id="路径" fill="#5955FB"></path>
                <path d="M21.6606895,4.40626391 C20.3578818,3.09859229 19.0479487,1.79778214 17.7309465,0.503889444 C17.0846976,-0.130606406 15.3632007,-0.165706176 14.6720352,0.415690007 C12.721372,2.05907925 9.30862808,2.05997925 7.33413158,0.41838999 C6.62921616,-0.168406159 4.92238586,-0.13510639 4.27430368,0.500289461 C2.97175916,1.7810719 1.6755794,3.06807876 0.385810578,4.36126421 C-0.131188505,4.87786084 -0.12843851,5.18025886 0.393143891,5.71485536 C1.04397606,6.381751 1.70855823,7.03784671 2.36855706,7.69754238 C3.05147253,8.38063791 3.11288907,8.39053784 4.05063741,7.94504078 L4.05063741,8.6605361 C4.05063741,11.3119188 4.04788741,13.9633014 4.05247073,16.6155841 C4.05430405,17.6505773 4.41088677,17.997975 5.45955158,17.997975 C9.15187836,18.000675 12.8451218,18.000675 16.5374486,17.997975 C17.5796967,17.997975 17.9481961,17.6406773 17.9491128,16.6155841 C17.9546128,13.9831013 17.9509461,11.3506185 17.9509461,8.71993571 L17.9509461,7.94594076 C18.772278,8.3383382 18.9592776,8.35363809 19.3296103,7.99274046 C20.1243589,7.21604554 20.9117742,6.43035068 21.6845228,5.63205589 C22.1153554,5.1856588 22.1025221,4.84906101 21.6606895,4.40626391" id="路径" stroke="#333333" stroke-width="1.5"></path>
            </g>
        </g>
    </g>
</svg>