<?xml version="1.0" encoding="UTF-8"?>
<svg width="87px" height="87px" viewBox="0 0 87 87" version="1.1" xmlns="http://www.w3.org/2000/svg" xmlns:xlink="http://www.w3.org/1999/xlink">
    <title>编组</title>
    <defs>
        <circle id="path-1" cx="43.5" cy="43.5" r="43.5"></circle>
    </defs>
    <g id="页面-1" stroke="none" stroke-width="1" fill="none" fill-rule="evenodd">
        <g id="画板" transform="translate(-17.000000, -274.000000)">
            <g id="编组" transform="translate(17.000000, 274.000000)">
                <g id="路径-6备份">
                    <mask id="mask-2" fill="white">
                        <use xlink:href="#path-1"></use>
                    </mask>
                    <use id="蒙版" fill="#EC5E5D" xlink:href="#path-1"></use>
                    <path d="M39.1081848,87 C25.4806925,73.3351135 19.7702967,55.2935206 21.9769974,32.8752213 C21.9959106,32.9504623 9.93600464,24.0316162 19.6600647,12.8577194 C22.5644989,9.34699249 29.6244812,6.88471985 26.8442383,15.9071732 C26.9393158,16.2071838 22.7575218,26.3621521 27.489143,28.7949371 C27.5569458,28.5344772 35.4397888,22.0881577 37.2739868,22.0881577 C37.1028748,21.7756195 44.5256195,17.3541946 45.0588226,15.9071732 C45.181839,15.290329 46.6176453,19.995224 45.0588226,22.0881577 C45.0587921,22.107811 53.1697235,22.4188232 54.2832794,24.3154755 C54.5177917,24.4333725 57.1367798,17.3678284 52.1145782,11.23069 C51.8800964,11.0820236 48.6669312,2.83008575 56.7402039,6.95605469 C56.9943848,6.91735077 64.7792816,9.03843689 63.149765,22.0881577 C63.3687693,22.4718348 62.1370188,24.707428 59.4545135,28.7949371 C61.3659821,33.0457754 62.3217163,35.4465765 62.3217163,35.9973404 C62.3217163,36.8234863 66.8614502,58.2321854 87,59.282753 C100.4257,59.9831314 88.5707167,72.2904867 51.4350506,96.2048187 L43.5,94.4450378 L39.1081848,87 Z" fill="#FFFFFF" mask="url(#mask-2)"></path>
                </g>
                <ellipse id="椭圆形备份-3" fill="#010101" cx="29" cy="45" rx="3" ry="4"></ellipse>
                <ellipse id="椭圆形备份-4" fill="#010101" transform="translate(56.947937, 41.250244) rotate(-15.000000) translate(-56.947937, -41.250244) " cx="56.947937" cy="41.2502441" rx="3" ry="4"></ellipse>
                <path d="M44.0242615,61.1709366 C49.0709991,61.1709366 52.0242615,56.4699265 52.0242615,50.6709366 C52.0242615,44.8719467 48.4425395,40.1709366 44.0242615,40.1709366 C39.6059835,40.1709366 36.0242615,44.8719467 36.0242615,50.6709366 C36.0242615,56.4699265 38.9775238,61.1709366 44.0242615,61.1709366 Z" id="椭圆形备份-5" fill="#FFE5E4" transform="translate(44.024261, 50.670937) rotate(-5.000000) translate(-44.024261, -50.670937) "></path>
                <g id="编组-3备份" transform="translate(43.951416, 50.976837) rotate(-14.000000) translate(-43.951416, -50.976837) translate(38.451416, 46.976837)">
                    <polyline id="路径-3" stroke="#000000" stroke-width="2.32485056" stroke-linecap="round" stroke-linejoin="round" points="2.86035594 0 5.61091288 2.33522295 8.53087215 0"></polyline>
                    <path d="M6.37696423,1.83693027 C6.27186042,4.60223956 6.8522062,6.04267055 8.11800157,6.15822322 C9.38379695,6.27377589 10.3280282,5.77292211 10.9506952,4.65566188 C11.2005594,6.45698385 10.5007369,7.53736456 8.85122785,7.89680403 C7.20171877,8.2562435 6.09858812,7.67671656 5.54183589,6.15822322 C4.92633599,7.31727709 3.83384763,7.89680403 2.2643708,7.89680403 C2.2643708,7.89680403 -0.219807214,7.19891101 0.0157529463,4.42546447 C0.126519886,4.47881691 1.77792083,6.40749359 3.16887229,6.15822322 C3.18065631,6.14075221 4.88335569,5.5955933 4.88335569,3.54848759 C4.88335569,2.18375045 4.88335569,1.7793289 4.88335569,2.33522295 L6.37696423,1.83693027 Z" id="路径-4" fill="#010003"></path>
                </g>
            </g>
        </g>
    </g>
</svg>