<?xml version="1.0" encoding="UTF-8"?>
<svg width="25px" height="25px" viewBox="0 0 25 25" version="1.1" xmlns="http://www.w3.org/2000/svg" xmlns:xlink="http://www.w3.org/1999/xlink">
    <title>钱包</title>
    <g id="页面-1" stroke="none" stroke-width="1" fill="none" fill-rule="evenodd">
        <g id="画板" transform="translate(-315.000000, -192.000000)">
            <g id="钱包" transform="translate(315.000000, 192.000000)">
                <rect id="矩形" fill="#FFE7F3" x="4.35458097" y="4.79583333" width="18" height="19.1583333" rx="1.83333333"></rect>
                <path d="M22.5761719,10.9375 L22.5761719,15.9791667 L16.4720052,15.9791667 C15.7758963,15.9791667 15.145688,15.6970128 14.6895069,15.2408317 C14.2333258,14.7846506 13.9511719,14.1544422 13.9511719,13.4583333 C13.9511719,12.7622244 14.2333258,12.1320161 14.6895069,11.675835 C15.145688,11.2196539 15.7758963,10.9375 16.4720052,10.9375 L16.4720052,10.9375 L22.5761719,10.9375 Z" id="矩形" stroke="#333333" stroke-width="1.375"></path>
                <ellipse id="椭圆形" fill="#F1354E" cx="17.354581" cy="13.4583333" rx="1.36363636" ry="1.375"></ellipse>
                <path d="M19.5970052,2.75 C20.4024205,2.75 21.1315871,3.07645904 21.6594,3.60427189 C22.1872128,4.13208474 22.5136719,4.86125141 22.5136719,5.66666667 L22.5136719,5.66666667 L22.5136719,20.3333333 C22.5136719,21.1387486 22.1872128,21.8679153 21.6594,22.3957281 C21.1315871,22.923541 20.4024205,23.25 19.5970052,23.25 L19.5970052,23.25 L5.66666667,23.25 C4.86125141,23.25 4.13208474,22.923541 3.60427189,22.3957281 C3.07645904,21.8679153 2.75,21.1387486 2.75,20.3333333 L2.75,20.3333333 L2.75,5.66666667 C2.75,4.86125141 3.07645904,4.13208474 3.60427189,3.60427189 C4.13208474,3.07645904 4.86125141,2.75 5.66666667,2.75 L5.66666667,2.75 Z" id="矩形" stroke="#333333" stroke-width="1.5"></path>
            </g>
        </g>
    </g>
</svg>