<?xml version="1.0" encoding="UTF-8"?>
<svg width="25px" height="25px" viewBox="0 0 25 25" version="1.1" xmlns="http://www.w3.org/2000/svg" xmlns:xlink="http://www.w3.org/1999/xlink">
    <title>闹钟</title>
    <g id="页面-1" stroke="none" stroke-width="1" fill="none" fill-rule="evenodd">
        <g id="画板" transform="translate(-180.000000, -28.000000)">
            <g id="闹钟" transform="translate(180.000000, 28.000000)">
                <g id="编组-34" transform="translate(1.487304, 1.250000)">
                    <path d="M15.2397842,19.1373033 C15.5157802,18.8811356 15.9330563,18.8724603 16.2183526,19.101096 L16.2997089,19.1767959 L18.0975604,21.1138076 C18.379345,21.4174033 18.3616635,21.8919477 18.0580679,22.1737323 C17.7820718,22.4299001 17.3647957,22.4385753 17.0794994,22.2099396 L16.9981432,22.1342397 L15.2002916,20.197228 C14.9185071,19.8936323 14.9361885,19.4190879 15.2397842,19.1373033 Z" id="路径-33备份-2" fill="#272727" fill-rule="nonzero"></path>
                    <path d="M2.22496152,19.1514428 C2.49385852,18.8878329 2.91074199,18.8677648 3.2021761,19.0885235 L3.28556942,19.1619732 L5.1844952,21.098985 C5.47446607,21.3947717 5.46975142,21.869622 5.17396472,22.1595929 C4.90506773,22.4232027 4.48818426,22.4432709 4.19675015,22.2225121 L4.11335683,22.1490624 L2.21443105,20.2120507 C1.92446017,19.916264 1.92917483,19.4414136 2.22496152,19.1514428 Z" id="路径-33备份-3" fill="#272727" fill-rule="nonzero" transform="translate(3.699463, 20.655518) scale(-1, 1) translate(-3.699463, -20.655518) "></path>
                    <circle id="椭圆形备份-17" fill="#EEF0FF" cx="11.5126955" cy="13.105469" r="8"></circle>
                    <path d="M10.5126955,2.10546898 C16.035543,2.10546898 20.5126955,6.58262148 20.5126955,12.105469 C20.5126955,17.6283165 16.035543,22.105469 10.5126955,22.105469 C4.98984805,22.105469 0.512695545,17.6283165 0.512695545,12.105469 C0.512695545,6.58262148 4.98984805,2.10546898 10.5126955,2.10546898 Z M10.5126955,3.60546898 C5.81827517,3.60546898 2.01269554,7.41104861 2.01269554,12.105469 C2.01269554,16.7998894 5.81827517,20.605469 10.5126955,20.605469 C15.2071159,20.605469 19.0126955,16.7998894 19.0126955,12.105469 C19.0126955,7.41104861 15.2071159,3.60546898 10.5126955,3.60546898 Z" id="椭圆形" fill="#272727" fill-rule="nonzero"></path>
                    <path d="M15.2249615,0.214431046 C15.4938585,-0.049178838 15.910742,-0.0692469642 16.2021761,0.151511801 L16.2855694,0.224961522 L20.083421,4.09898496 C20.3733919,4.39477165 20.3686772,4.86962198 20.0728905,5.15959286 C19.8039935,5.42320274 19.38711,5.44327087 19.0956759,5.2225121 L19.0122826,5.14906238 L15.214431,1.27503894 C14.9244602,0.979252249 14.9291748,0.504401919 15.2249615,0.214431046 Z" id="路径-33" fill="#272727" fill-rule="nonzero"></path>
                    <path d="M0.224961522,0.214431046 C0.493858516,-0.049178838 0.910741986,-0.0692469642 1.2021761,0.151511801 L1.28556942,0.224961522 L5.08342098,4.09898496 C5.37339185,4.39477165 5.3686772,4.86962198 5.0728905,5.15959286 C4.80399351,5.42320274 4.38711004,5.44327087 4.09567593,5.2225121 L4.01228261,5.14906238 L0.214431046,1.27503894 C-0.0755398264,0.979252249 -0.0708251719,0.504401919 0.224961522,0.214431046 Z" id="路径-33备份" fill="#272727" fill-rule="nonzero" transform="translate(2.648926, 2.687012) scale(-1, 1) translate(-2.648926, -2.687012) "></path>
                </g>
                <circle id="椭圆形" fill="#585BEE" cx="12" cy="14" r="1"></circle>
                <rect id="矩形" fill="#585BEE" x="11" y="10" width="1.5" height="5" rx="0.75"></rect>
                <rect id="矩形备份-14" fill="#585BEE" transform="translate(13.750000, 13.500000) rotate(-285.000000) translate(-13.750000, -13.500000) " x="13" y="11" width="1.5" height="5" rx="0.75"></rect>
            </g>
        </g>
    </g>
</svg>